<?xml version="1.0" encoding="utf-8"?>
<!-- Generator: Adobe Illustrator 17.0.0, SVG Export Plug-In . SVG Version: 6.00 Build 0)  -->
<!DOCTYPE svg PUBLIC "-//W3C//DTD SVG 1.1//EN" "http://www.w3.org/Graphics/SVG/1.1/DTD/svg11.dtd">
<svg version="1.1" id="Camada_1" xmlns="http://www.w3.org/2000/svg" xmlns:xlink="http://www.w3.org/1999/xlink" x="0px" y="0px"
	 width="145.5px" height="135px" viewBox="0 0 145.5 135" enable-background="new 0 0 145.5 135" xml:space="preserve">
<g>
	<g>
		<path fill="#FBA51A" d="M75.376,14.525l12.123,37.623l39.558-0.037c1.653,0,3.003,1.297,3.003,2.947
			c0,0.974-0.509,1.859-1.221,2.418L96.788,80.654l12.289,37.636c0.509,1.56-0.336,3.209-1.896,3.715
			c-1.014,0.339-2.119,0.08-2.87-0.559L72.546,98.268l-31.972,23.308c-1.354,0.974-3.21,0.675-4.134-0.635
			c-0.595-0.805-0.725-1.819-0.429-2.651h-0.037l12.329-37.636L16.251,57.462c-1.35-0.961-1.65-2.82-0.675-4.131
			c0.635-0.885,1.596-1.314,2.611-1.221l39.366,0.037l12.159-37.636c0.509-1.56,2.159-2.405,3.715-1.936
			C74.401,12.912,75.077,13.627,75.376,14.525L75.376,14.525z M72.875,94.834l-28.367,16.518l26.218-19.124
			c1.014-0.765,0.247-2.558,1.338-1.793l28.479,20.918L90.486,80.574c-0.466-1.234-0.076-2.664,1.014-3.469l26.401-19.044
			L85.46,58.097c-1.3,0.093-2.521-0.752-2.95-2.065l0,0l-9.964-30.958 M72.875,94.834l0.437-2.113 M82.51,56.032"/>
	</g>
</g>
<g>
	<g>
		<path fill="#FBA51A" d="M-183.558,14.525l12.123,37.623l39.558-0.037c1.653,0,3.003,1.297,3.003,2.947
			c0,0.974-0.509,1.859-1.221,2.418l-32.052,23.178l12.289,37.636c0.509,1.56-0.336,3.209-1.896,3.715
			c-1.014,0.339-2.119,0.08-2.87-0.559l-31.766-23.178l-31.972,23.308c-1.354,0.974-3.21,0.675-4.134-0.635
			c-0.595-0.805-0.725-1.819-0.429-2.651h-0.037l12.329-37.636l-32.052-23.192c-1.35-0.961-1.65-2.82-0.675-4.131
			c0.635-0.885,1.596-1.314,2.611-1.221l39.366,0.037l12.159-37.636c0.509-1.56,2.159-2.405,3.715-1.936
			C-184.532,12.912-183.857,13.627-183.558,14.525L-183.558,14.525z M-186.059,94.834l-28.367,16.518l26.218-19.124
			c1.014-0.765,22.927-15.097,24.018-14.332l5.799,33.456l-10.058-30.778c-0.466-1.234-0.076-2.664,1.014-3.469l26.401-19.044
			l-32.441,0.037c-1.3,0.093-2.521-0.752-2.95-2.065l0,0l39.95,0.384 M-186.059,94.834l0.437-2.113 M-176.424,56.032"/>
	</g>
</g>
</svg>
